<svg width="300" height="200" viewBox="0 0 300 200" fill="none" xmlns="http://www.w3.org/2000/svg">
<rect width="300" height="200" fill="white"/>
<path d="M47.756 66.332V65.36H53.48V76.772C54.176 75.74 54.968 74.996 55.856 74.54C56.744 74.06 57.704 73.82 58.736 73.82C60.8 73.82 62.396 74.6 63.524 76.16C64.676 77.72 65.252 79.904 65.252 82.712V83.432C65.252 86.168 64.592 88.34 63.272 89.948C61.976 91.556 60.152 92.36 57.8 92.36C55.928 92.36 54.392 91.748 53.192 90.524C52.856 90.716 52.544 90.956 52.256 91.244C51.968 91.532 51.68 91.844 51.392 92.18H50.528V68.276C50.528 67.436 50.492 66.944 50.42 66.8C50.348 66.656 50.12 66.56 49.736 66.512L47.756 66.332ZM58.268 75.116C57.524 75.116 56.744 75.356 55.928 75.836C55.136 76.316 54.32 77.288 53.48 78.752V89.048C54.512 90.464 55.88 91.172 57.584 91.172C59.144 91.172 60.272 90.584 60.968 89.408C61.664 88.208 62.012 86.576 62.012 84.512V81.632C62.012 79.376 61.688 77.732 61.04 76.7C60.392 75.644 59.468 75.116 58.268 75.116ZM83.7287 92.252C81.8567 92.252 80.7527 91.388 80.4167 89.66C79.5767 90.62 78.6527 91.316 77.6447 91.748C76.6367 92.156 75.6407 92.36 74.6567 92.36C72.9767 92.36 71.7407 91.892 70.9487 90.956C70.1567 90.02 69.7607 88.892 69.7607 87.572C69.7607 86.156 70.2407 85.04 71.2007 84.224C72.1847 83.384 73.8767 82.964 76.2767 82.964H80.3447V80.048C80.3447 78.128 80.0087 76.808 79.3367 76.088C78.6887 75.344 77.8007 74.972 76.6727 74.972C75.9527 74.972 75.3047 75.116 74.7287 75.404C74.1527 75.692 73.7327 76.22 73.4687 76.988C73.2287 77.732 73.2047 78.824 73.3967 80.264L70.5527 79.832C70.4327 78.704 70.5767 77.696 70.9847 76.808C71.4167 75.896 72.1127 75.176 73.0727 74.648C74.0567 74.096 75.2807 73.82 76.7447 73.82C78.4967 73.82 79.8407 74.12 80.7767 74.72C81.7127 75.296 82.3607 76.052 82.7207 76.988C83.1047 77.924 83.2967 78.944 83.2967 80.048V88.148C83.2967 89.372 83.4287 90.14 83.6927 90.452C83.9807 90.764 84.2927 90.92 84.6287 90.92C84.8447 90.92 85.0727 90.872 85.3127 90.776C85.5527 90.656 85.8167 90.476 86.1047 90.236L86.7527 91.136C86.3927 91.448 85.9607 91.712 85.4567 91.928C84.9767 92.144 84.4007 92.252 83.7287 92.252ZM75.6647 90.848C76.3367 90.848 77.0567 90.668 77.8247 90.308C78.6167 89.924 79.4567 89.168 80.3447 88.04V84.116H76.6727C75.3287 84.116 74.3447 84.392 73.7207 84.944C73.1207 85.472 72.8207 86.3 72.8207 87.428C72.8207 88.508 73.0487 89.348 73.5047 89.948C73.9847 90.548 74.7047 90.848 75.6647 90.848ZM88.0861 66.332V65.36H93.8101V89.084C93.8101 89.924 93.8461 90.416 93.9181 90.56C93.9901 90.704 94.2181 90.8 94.6021 90.848L96.5821 91.064V92H88.0861V91.064L90.0661 90.848C90.4501 90.8 90.6781 90.704 90.7501 90.56C90.8221 90.416 90.8581 89.924 90.8581 89.084V68.276C90.8581 67.436 90.8221 66.944 90.7501 66.8C90.6781 66.656 90.4501 66.56 90.0661 66.512L88.0861 66.332ZM98.633 66.332V65.36H104.357V89.084C104.357 89.924 104.393 90.416 104.465 90.56C104.537 90.704 104.765 90.8 105.149 90.848L107.129 91.064V92H98.633V91.064L100.613 90.848C100.997 90.8 101.225 90.704 101.297 90.56C101.369 90.416 101.405 89.924 101.405 89.084V68.276C101.405 67.436 101.369 66.944 101.297 66.8C101.225 66.656 100.997 66.56 100.613 66.512L98.633 66.332ZM125.992 82.712V83.432C125.992 86.144 125.308 88.316 123.94 89.948C122.596 91.556 120.676 92.36 118.18 92.36C115.708 92.36 113.788 91.556 112.42 89.948C111.076 88.316 110.404 86.144 110.404 83.432V82.712C110.404 80.024 111.076 77.876 112.42 76.268C113.764 74.636 115.684 73.82 118.18 73.82C120.676 73.82 122.596 74.636 123.94 76.268C125.308 77.876 125.992 80.024 125.992 82.712ZM122.752 81.992C122.752 79.496 122.356 77.708 121.564 76.628C120.796 75.524 119.668 74.972 118.18 74.972C116.716 74.972 115.588 75.524 114.796 76.628C114.028 77.708 113.644 79.496 113.644 81.992V84.152C113.644 86.672 114.028 88.484 114.796 89.588C115.588 90.668 116.716 91.208 118.18 91.208C119.668 91.208 120.796 90.668 121.564 89.588C122.356 88.484 122.752 86.672 122.752 84.152V81.992ZM146.031 82.712V83.432C146.031 86.144 145.347 88.316 143.979 89.948C142.635 91.556 140.715 92.36 138.219 92.36C135.747 92.36 133.827 91.556 132.459 89.948C131.115 88.316 130.443 86.144 130.443 83.432V82.712C130.443 80.024 131.115 77.876 132.459 76.268C133.803 74.636 135.723 73.82 138.219 73.82C140.715 73.82 142.635 74.636 143.979 76.268C145.347 77.876 146.031 80.024 146.031 82.712ZM142.791 81.992C142.791 79.496 142.395 77.708 141.603 76.628C140.835 75.524 139.707 74.972 138.219 74.972C136.755 74.972 135.627 75.524 134.835 76.628C134.067 77.708 133.683 79.496 133.683 81.992V84.152C133.683 86.672 134.067 88.484 134.835 89.588C135.627 90.668 136.755 91.208 138.219 91.208C139.707 91.208 140.835 90.668 141.603 89.588C142.395 88.484 142.791 86.672 142.791 84.152V81.992ZM169.634 91.064V92H161.138V91.064L163.118 90.848C163.502 90.8 163.73 90.704 163.802 90.56C163.874 90.416 163.91 89.924 163.91 89.084V80.12C163.91 78.344 163.622 77.096 163.046 76.376C162.47 75.632 161.642 75.26 160.562 75.26C159.77 75.26 158.894 75.5 157.934 75.98C156.974 76.46 156.074 77.396 155.234 78.788V89.084C155.234 89.924 155.27 90.416 155.342 90.56C155.414 90.704 155.642 90.8 156.026 90.848L158.006 91.064V92H149.51V91.064L151.49 90.848C151.874 90.8 152.102 90.704 152.174 90.56C152.246 90.416 152.282 89.924 152.282 89.084V77.096C152.282 76.256 152.246 75.764 152.174 75.62C152.102 75.476 151.874 75.38 151.49 75.332L149.51 75.152V74.18H155.054V77.096C155.918 75.944 156.89 75.116 157.97 74.612C159.074 74.084 160.178 73.82 161.282 73.82C163.058 73.82 164.426 74.372 165.386 75.476C166.37 76.556 166.862 78.092 166.862 80.084V89.084C166.862 89.924 166.898 90.416 166.97 90.56C167.042 90.704 167.27 90.8 167.654 90.848L169.634 91.064ZM196.661 94.088C196.661 96.008 195.953 97.472 194.537 98.48C193.145 99.512 191.201 100.028 188.705 100.028C185.969 100.028 183.965 99.548 182.693 98.588C181.421 97.652 180.761 96.464 180.713 95.024L183.377 94.484C183.281 95.804 183.629 96.86 184.421 97.652C185.237 98.468 186.665 98.876 188.705 98.876C190.529 98.876 191.993 98.54 193.097 97.868C194.225 97.196 194.789 96.212 194.789 94.916C194.789 93.956 194.465 93.236 193.817 92.756C193.169 92.276 192.101 92.036 190.613 92.036H186.329C184.721 92.036 183.593 91.7 182.945 91.028C182.297 90.332 181.973 89.564 181.973 88.724C181.973 88.028 182.141 87.38 182.477 86.78C182.837 86.156 183.401 85.544 184.169 84.944C183.209 84.488 182.429 83.828 181.829 82.964C181.229 82.076 180.929 81.008 180.929 79.76C180.929 78.44 181.229 77.348 181.829 76.484C182.453 75.596 183.269 74.936 184.277 74.504C185.309 74.048 186.449 73.82 187.697 73.82H188.309C189.629 73.82 190.805 74.06 191.837 74.54L197.057 72.74L197.453 75.44H193.241C193.793 75.92 194.225 76.52 194.537 77.24C194.873 77.96 195.041 78.8 195.041 79.76C195.041 81.032 194.729 82.112 194.105 83C193.505 83.888 192.701 84.56 191.693 85.016C190.685 85.448 189.557 85.664 188.309 85.664H187.697C187.289 85.664 186.893 85.64 186.509 85.592C186.125 85.544 185.753 85.472 185.393 85.376C184.865 85.736 184.481 86.108 184.241 86.492C184.025 86.876 183.917 87.272 183.917 87.68C183.917 88.16 184.085 88.544 184.421 88.832C184.781 89.12 185.345 89.264 186.113 89.264H190.793C192.689 89.264 194.141 89.672 195.149 90.488C196.157 91.304 196.661 92.504 196.661 94.088ZM188.309 84.512C188.957 84.512 189.545 84.368 190.073 84.08C190.625 83.792 191.069 83.312 191.405 82.64C191.741 81.944 191.909 80.984 191.909 79.76C191.909 78.512 191.741 77.552 191.405 76.88C191.069 76.184 190.625 75.692 190.073 75.404C189.545 75.116 188.957 74.972 188.309 74.972H187.697C187.049 74.972 186.449 75.116 185.897 75.404C185.345 75.692 184.901 76.184 184.565 76.88C184.229 77.552 184.061 78.512 184.061 79.76C184.061 80.984 184.229 81.944 184.565 82.64C184.901 83.312 185.345 83.792 185.897 84.08C186.449 84.368 187.049 84.512 187.697 84.512H188.309ZM214.158 92.252C212.286 92.252 211.182 91.388 210.846 89.66C210.006 90.62 209.082 91.316 208.074 91.748C207.066 92.156 206.07 92.36 205.086 92.36C203.406 92.36 202.17 91.892 201.378 90.956C200.586 90.02 200.19 88.892 200.19 87.572C200.19 86.156 200.67 85.04 201.63 84.224C202.614 83.384 204.306 82.964 206.706 82.964H210.774V80.048C210.774 78.128 210.438 76.808 209.766 76.088C209.118 75.344 208.23 74.972 207.102 74.972C206.382 74.972 205.734 75.116 205.158 75.404C204.582 75.692 204.162 76.22 203.898 76.988C203.658 77.732 203.634 78.824 203.826 80.264L200.982 79.832C200.862 78.704 201.006 77.696 201.414 76.808C201.846 75.896 202.542 75.176 203.502 74.648C204.486 74.096 205.71 73.82 207.174 73.82C208.926 73.82 210.27 74.12 211.206 74.72C212.142 75.296 212.79 76.052 213.15 76.988C213.534 77.924 213.726 78.944 213.726 80.048V88.148C213.726 89.372 213.858 90.14 214.122 90.452C214.41 90.764 214.722 90.92 215.058 90.92C215.274 90.92 215.502 90.872 215.742 90.776C215.982 90.656 216.246 90.476 216.534 90.236L217.182 91.136C216.822 91.448 216.39 91.712 215.886 91.928C215.406 92.144 214.83 92.252 214.158 92.252ZM206.094 90.848C206.766 90.848 207.486 90.668 208.254 90.308C209.046 89.924 209.886 89.168 210.774 88.04V84.116H207.102C205.758 84.116 204.774 84.392 204.15 84.944C203.55 85.472 203.25 86.3 203.25 87.428C203.25 88.508 203.478 89.348 203.934 89.948C204.414 90.548 205.134 90.848 206.094 90.848ZM238.532 91.064V92H230.036V91.064L232.016 90.848C232.4 90.8 232.628 90.704 232.7 90.56C232.772 90.416 232.808 89.924 232.808 89.084V80.12C232.808 78.344 232.532 77.096 231.98 76.376C231.452 75.632 230.672 75.26 229.64 75.26C228.896 75.26 228.056 75.5 227.12 75.98C226.208 76.46 225.332 77.384 224.492 78.752V89.084C224.492 89.924 224.528 90.416 224.6 90.56C224.672 90.704 224.9 90.8 225.284 90.848L227.264 91.064V92H218.768V91.064L220.748 90.848C221.132 90.8 221.36 90.704 221.432 90.56C221.504 90.416 221.54 89.924 221.54 89.084V77.096C221.54 76.256 221.504 75.764 221.432 75.62C221.36 75.476 221.132 75.38 220.748 75.332L218.768 75.152V74.18H224.312V77.096C225.152 75.968 226.1 75.14 227.156 74.612C228.236 74.084 229.304 73.82 230.36 73.82C232.952 73.82 234.62 75.008 235.364 77.384C236.252 76.136 237.236 75.236 238.316 74.684C239.42 74.108 240.524 73.82 241.628 73.82C243.332 73.82 244.652 74.372 245.588 75.476C246.548 76.556 247.028 78.092 247.028 80.084V89.084C247.028 89.924 247.064 90.416 247.136 90.56C247.208 90.704 247.436 90.8 247.82 90.848L249.8 91.064V92H241.304V91.064L243.284 90.848C243.668 90.8 243.896 90.704 243.968 90.56C244.04 90.416 244.076 89.924 244.076 89.084V80.12C244.076 78.344 243.8 77.096 243.248 76.376C242.72 75.632 241.94 75.26 240.908 75.26C240.164 75.26 239.312 75.512 238.352 76.016C237.416 76.496 236.528 77.444 235.688 78.86C235.712 79.052 235.724 79.256 235.724 79.472C235.748 79.664 235.76 79.868 235.76 80.084V89.084C235.76 89.924 235.796 90.416 235.868 90.56C235.94 90.704 236.168 90.8 236.552 90.848L238.532 91.064ZM267.221 87.896C266.789 89.528 265.973 90.68 264.773 91.352C263.597 92.024 262.289 92.36 260.849 92.36C258.185 92.36 256.193 91.556 254.873 89.948C253.553 88.316 252.893 86.144 252.893 83.432V82.712C252.893 80.024 253.529 77.876 254.801 76.268C256.073 74.636 257.921 73.82 260.345 73.82C261.641 73.82 262.817 74.084 263.873 74.612C264.953 75.14 265.805 75.92 266.429 76.952C267.077 77.984 267.401 79.268 267.401 80.804C267.401 81.524 267.329 82.28 267.185 83.072H256.133V84.152C256.133 86.672 256.517 88.484 257.285 89.588C258.077 90.668 259.349 91.208 261.101 91.208C262.205 91.208 263.117 90.92 263.837 90.344C264.581 89.768 265.073 88.772 265.313 87.356L267.221 87.896ZM260.345 74.972C258.929 74.972 257.873 75.512 257.177 76.592C256.481 77.672 256.133 79.448 256.133 81.92H264.233V81.812C264.281 81.5 264.317 81.2 264.341 80.912C264.365 80.6 264.377 80.324 264.377 80.084C264.377 78.284 264.005 76.988 263.261 76.196C262.517 75.38 261.545 74.972 260.345 74.972Z" fill="black"/>
</svg>
