<svg width="300" height="200" viewBox="0 0 300 200" fill="none" xmlns="http://www.w3.org/2000/svg">
<rect width="300" height="200" fill="white"/>
<path d="M47.756 66.332V65.36H53.48V76.772C54.176 75.74 54.968 74.996 55.856 74.54C56.744 74.06 57.704 73.82 58.736 73.82C60.8 73.82 62.396 74.6 63.524 76.16C64.676 77.72 65.252 79.904 65.252 82.712V83.432C65.252 86.168 64.592 88.34 63.272 89.948C61.976 91.556 60.152 92.36 57.8 92.36C55.928 92.36 54.392 91.748 53.192 90.524C52.856 90.716 52.544 90.956 52.256 91.244C51.968 91.532 51.68 91.844 51.392 92.18H50.528V68.276C50.528 67.436 50.492 66.944 50.42 66.8C50.348 66.656 50.12 66.56 49.736 66.512L47.756 66.332ZM58.268 75.116C57.524 75.116 56.744 75.356 55.928 75.836C55.136 76.316 54.32 77.288 53.48 78.752V89.048C54.512 90.464 55.88 91.172 57.584 91.172C59.144 91.172 60.272 90.584 60.968 89.408C61.664 88.208 62.012 86.576 62.012 84.512V81.632C62.012 79.376 61.688 77.732 61.04 76.7C60.392 75.644 59.468 75.116 58.268 75.116ZM83.7287 92.252C81.8567 92.252 80.7527 91.388 80.4167 89.66C79.5767 90.62 78.6527 91.316 77.6447 91.748C76.6367 92.156 75.6407 92.36 74.6567 92.36C72.9767 92.36 71.7407 91.892 70.9487 90.956C70.1567 90.02 69.7607 88.892 69.7607 87.572C69.7607 86.156 70.2407 85.04 71.2007 84.224C72.1847 83.384 73.8767 82.964 76.2767 82.964H80.3447V80.048C80.3447 78.128 80.0087 76.808 79.3367 76.088C78.6887 75.344 77.8007 74.972 76.6727 74.972C75.9527 74.972 75.3047 75.116 74.7287 75.404C74.1527 75.692 73.7327 76.22 73.4687 76.988C73.2287 77.732 73.2047 78.824 73.3967 80.264L70.5527 79.832C70.4327 78.704 70.5767 77.696 70.9847 76.808C71.4167 75.896 72.1127 75.176 73.0727 74.648C74.0567 74.096 75.2807 73.82 76.7447 73.82C78.4967 73.82 79.8407 74.12 80.7767 74.72C81.7127 75.296 82.3607 76.052 82.7207 76.988C83.1047 77.924 83.2967 78.944 83.2967 80.048V88.148C83.2967 89.372 83.4287 90.14 83.6927 90.452C83.9807 90.764 84.2927 90.92 84.6287 90.92C84.8447 90.92 85.0727 90.872 85.3127 90.776C85.5527 90.656 85.8167 90.476 86.1047 90.236L86.7527 91.136C86.3927 91.448 85.9607 91.712 85.4567 91.928C84.9767 92.144 84.4007 92.252 83.7287 92.252ZM75.6647 90.848C76.3367 90.848 77.0567 90.668 77.8247 90.308C78.6167 89.924 79.4567 89.168 80.3447 88.04V84.116H76.6727C75.3287 84.116 74.3447 84.392 73.7207 84.944C73.1207 85.472 72.8207 86.3 72.8207 87.428C72.8207 88.508 73.0487 89.348 73.5047 89.948C73.9847 90.548 74.7047 90.848 75.6647 90.848ZM100.218 88.328C99.8581 89.72 99.2941 90.74 98.5261 91.388C97.7581 92.036 96.7741 92.36 95.5741 92.36C94.4221 92.36 93.4861 92.108 92.7661 91.604C92.0461 91.076 91.5181 90.392 91.1821 89.552C90.8461 88.712 90.6781 87.836 90.6781 86.924V77.096C90.6781 76.256 90.6421 75.764 90.5701 75.62C90.5221 75.476 90.2941 75.38 89.8861 75.332L87.9061 75.152V74.18H90.6781V69.464L93.6301 68.852V74.18H99.4981V75.332H93.6301V87.212C93.6301 88.724 93.8341 89.768 94.2421 90.344C94.6741 90.92 95.2381 91.208 95.9341 91.208C96.6301 91.208 97.1581 90.944 97.5181 90.416C97.9021 89.888 98.1781 89.024 98.3461 87.824L100.218 88.328ZM114.14 88.328C113.78 89.72 113.216 90.74 112.448 91.388C111.68 92.036 110.696 92.36 109.496 92.36C108.344 92.36 107.408 92.108 106.688 91.604C105.968 91.076 105.44 90.392 105.104 89.552C104.768 88.712 104.6 87.836 104.6 86.924V77.096C104.6 76.256 104.564 75.764 104.492 75.62C104.444 75.476 104.216 75.38 103.808 75.332L101.828 75.152V74.18H104.6V69.464L107.552 68.852V74.18H113.42V75.332H107.552V87.212C107.552 88.724 107.756 89.768 108.164 90.344C108.596 90.92 109.16 91.208 109.856 91.208C110.552 91.208 111.08 90.944 111.44 90.416C111.824 89.888 112.1 89.024 112.268 87.824L114.14 88.328ZM115.93 66.332V65.36H121.654V89.084C121.654 89.924 121.69 90.416 121.762 90.56C121.834 90.704 122.062 90.8 122.446 90.848L124.426 91.064V92H115.93V91.064L117.91 90.848C118.294 90.8 118.522 90.704 118.594 90.56C118.666 90.416 118.702 89.924 118.702 89.084V68.276C118.702 67.436 118.666 66.944 118.594 66.8C118.522 66.656 118.294 66.56 117.91 66.512L115.93 66.332ZM142.065 87.896C141.633 89.528 140.817 90.68 139.617 91.352C138.441 92.024 137.133 92.36 135.693 92.36C133.029 92.36 131.037 91.556 129.717 89.948C128.397 88.316 127.737 86.144 127.737 83.432V82.712C127.737 80.024 128.373 77.876 129.645 76.268C130.917 74.636 132.765 73.82 135.189 73.82C136.485 73.82 137.661 74.084 138.717 74.612C139.797 75.14 140.649 75.92 141.273 76.952C141.921 77.984 142.245 79.268 142.245 80.804C142.245 81.524 142.173 82.28 142.029 83.072H130.977V84.152C130.977 86.672 131.361 88.484 132.129 89.588C132.921 90.668 134.193 91.208 135.945 91.208C137.049 91.208 137.961 90.92 138.681 90.344C139.425 89.768 139.917 88.772 140.157 87.356L142.065 87.896ZM135.189 74.972C133.773 74.972 132.717 75.512 132.021 76.592C131.325 77.672 130.977 79.448 130.977 81.92H139.077V81.812C139.125 81.5 139.161 81.2 139.185 80.912C139.209 80.6 139.221 80.324 139.221 80.084C139.221 78.284 138.849 76.988 138.105 76.196C137.361 75.38 136.389 74.972 135.189 74.972ZM153.239 84.728L151.043 84.188C148.043 83.42 146.543 81.692 146.543 79.004C146.543 78.116 146.747 77.276 147.155 76.484C147.563 75.692 148.211 75.056 149.099 74.576C150.011 74.072 151.175 73.82 152.591 73.82C154.175 73.82 155.447 74.084 156.407 74.612C157.367 75.14 158.039 75.824 158.423 76.664C158.807 77.504 158.927 78.416 158.783 79.4L155.975 79.904C156.263 78.344 156.095 77.132 155.471 76.268C154.871 75.404 153.875 74.972 152.483 74.972C151.403 74.972 150.539 75.248 149.891 75.8C149.243 76.328 148.919 77.108 148.919 78.14C148.919 78.908 149.159 79.592 149.639 80.192C150.119 80.768 150.923 81.2 152.051 81.488L154.319 82.028C155.903 82.412 157.127 83.024 157.991 83.864C158.879 84.704 159.323 85.808 159.323 87.176C159.323 88.712 158.759 89.96 157.631 90.92C156.527 91.88 154.943 92.36 152.879 92.36C151.895 92.36 150.935 92.216 149.999 91.928C149.087 91.616 148.283 91.136 147.587 90.488C146.915 89.816 146.423 88.952 146.111 87.896L148.127 87.176C148.391 88.688 148.967 89.744 149.855 90.344C150.743 90.944 151.763 91.244 152.915 91.244C153.587 91.244 154.223 91.136 154.823 90.92C155.447 90.704 155.951 90.368 156.335 89.912C156.719 89.432 156.911 88.82 156.911 88.076C156.911 87.308 156.647 86.648 156.119 86.096C155.591 85.544 154.631 85.088 153.239 84.728ZM182.566 91.064V92H174.07V91.064L176.05 90.848C176.434 90.8 176.662 90.704 176.734 90.56C176.806 90.416 176.842 89.924 176.842 89.084V80.12C176.842 78.344 176.554 77.096 175.978 76.376C175.402 75.632 174.586 75.26 173.53 75.26C172.714 75.26 171.826 75.5 170.866 75.98C169.906 76.46 169.006 77.408 168.166 78.824V89.084C168.166 89.924 168.202 90.416 168.274 90.56C168.346 90.704 168.574 90.8 168.958 90.848L170.938 91.064V92H162.442V91.064L164.422 90.848C164.806 90.8 165.034 90.704 165.106 90.56C165.178 90.416 165.214 89.924 165.214 89.084V68.276C165.214 67.436 165.178 66.944 165.106 66.8C165.034 66.656 164.806 66.56 164.422 66.512L162.442 66.332V65.36H168.166V76.916C169.006 75.836 169.966 75.056 171.046 74.576C172.126 74.072 173.194 73.82 174.25 73.82C176.026 73.82 177.394 74.372 178.354 75.476C179.314 76.556 179.794 78.092 179.794 80.084V89.084C179.794 89.924 179.83 90.416 179.902 90.56C179.974 90.704 180.202 90.8 180.586 90.848L182.566 91.064ZM188.878 70.148C188.302 70.148 187.822 69.968 187.438 69.608C187.078 69.224 186.898 68.732 186.898 68.132C186.898 67.556 187.078 67.088 187.438 66.728C187.822 66.368 188.302 66.188 188.878 66.188C189.454 66.188 189.922 66.368 190.282 66.728C190.666 67.088 190.858 67.556 190.858 68.132C190.858 68.732 190.666 69.224 190.282 69.608C189.922 69.968 189.454 70.148 188.878 70.148ZM184.666 75.152V74.18H190.39V89.084C190.39 89.924 190.426 90.416 190.498 90.56C190.57 90.704 190.798 90.8 191.182 90.848L193.162 91.064V92H184.666V91.064L186.646 90.848C187.03 90.8 187.258 90.704 187.33 90.56C187.402 90.416 187.438 89.924 187.438 89.084V77.096C187.438 76.256 187.402 75.764 187.33 75.62C187.258 75.476 187.03 75.38 186.646 75.332L184.666 75.152ZM195.172 75.116V74.18H200.716V77.06C201.436 75.932 202.24 75.116 203.128 74.612C204.04 74.084 205.048 73.82 206.152 73.82C208.216 73.82 209.812 74.6 210.94 76.16C212.092 77.72 212.668 79.904 212.668 82.712V83.432C212.668 86.168 212.008 88.34 210.688 89.948C209.368 91.556 207.532 92.36 205.18 92.36C203.5 92.36 202.072 91.844 200.896 90.812V96.752C200.896 97.568 200.932 98.048 201.004 98.192C201.076 98.36 201.304 98.468 201.688 98.516L204.388 98.696V99.668H195.172V98.696L197.152 98.516C197.536 98.468 197.764 98.36 197.836 98.192C197.908 98.048 197.944 97.568 197.944 96.752V77.096C197.944 76.256 197.908 75.764 197.836 75.62C197.764 75.476 197.536 75.38 197.152 75.332L195.172 75.116ZM205.684 75.116C204.94 75.116 204.16 75.356 203.344 75.836C202.552 76.316 201.736 77.288 200.896 78.752V89.048C201.928 90.464 203.296 91.172 205 91.172C206.56 91.172 207.688 90.584 208.384 89.408C209.08 88.208 209.428 86.576 209.428 84.512V81.632C209.428 79.376 209.104 77.732 208.456 76.7C207.808 75.644 206.884 75.116 205.684 75.116Z" fill="black"/>
</svg>
