<svg width="300" height="200" viewBox="0 0 300 200" fill="none" xmlns="http://www.w3.org/2000/svg">
<rect width="300" height="200" fill="white"/>
<path d="M56.684 74.972C55.364 74.972 54.332 75.524 53.588 76.628C52.868 77.708 52.508 79.496 52.508 81.992V84.152C52.508 86.672 52.868 88.484 53.588 89.588C54.332 90.668 55.532 91.208 57.188 91.208C58.316 91.208 59.228 90.92 59.924 90.344C60.62 89.768 61.088 88.772 61.328 87.356L63.236 87.896C62.804 89.528 62.012 90.68 60.86 91.352C59.708 92.024 58.424 92.36 57.008 92.36C54.416 92.36 52.472 91.556 51.176 89.948C49.904 88.316 49.268 86.144 49.268 83.432V82.712C49.268 80.024 49.904 77.876 51.176 76.268C52.448 74.636 54.284 73.82 56.684 73.82C58.22 73.82 59.492 74.12 60.5 74.72C61.532 75.32 62.264 76.136 62.696 77.168C63.128 78.176 63.248 79.292 63.056 80.516L60.212 80.948C60.476 79.028 60.296 77.552 59.672 76.52C59.072 75.488 58.076 74.972 56.684 74.972ZM82.8903 82.712V83.432C82.8903 86.144 82.2063 88.316 80.8383 89.948C79.4943 91.556 77.5743 92.36 75.0783 92.36C72.6063 92.36 70.6863 91.556 69.3183 89.948C67.9743 88.316 67.3023 86.144 67.3023 83.432V82.712C67.3023 80.024 67.9743 77.876 69.3183 76.268C70.6623 74.636 72.5823 73.82 75.0783 73.82C77.5743 73.82 79.4943 74.636 80.8383 76.268C82.2063 77.876 82.8903 80.024 82.8903 82.712ZM79.6503 81.992C79.6503 79.496 79.2543 77.708 78.4623 76.628C77.6943 75.524 76.5663 74.972 75.0783 74.972C73.6143 74.972 72.4863 75.524 71.6943 76.628C70.9263 77.708 70.5423 79.496 70.5423 81.992V84.152C70.5423 86.672 70.9263 88.484 71.6943 89.588C72.4863 90.668 73.6143 91.208 75.0783 91.208C76.5663 91.208 77.6943 90.668 78.4623 89.588C79.2543 88.484 79.6503 86.672 79.6503 84.152V81.992ZM106.493 91.064V92H97.9974V91.064L99.9774 90.848C100.361 90.8 100.589 90.704 100.661 90.56C100.733 90.416 100.769 89.924 100.769 89.084V80.12C100.769 78.344 100.481 77.096 99.9054 76.376C99.3294 75.632 98.5014 75.26 97.4214 75.26C96.6294 75.26 95.7534 75.5 94.7934 75.98C93.8334 76.46 92.9334 77.396 92.0934 78.788V89.084C92.0934 89.924 92.1294 90.416 92.2014 90.56C92.2734 90.704 92.5014 90.8 92.8854 90.848L94.8654 91.064V92H86.3694V91.064L88.3494 90.848C88.7334 90.8 88.9614 90.704 89.0334 90.56C89.1054 90.416 89.1414 89.924 89.1414 89.084V77.096C89.1414 76.256 89.1054 75.764 89.0334 75.62C88.9614 75.476 88.7334 75.38 88.3494 75.332L86.3694 75.152V74.18H91.9134V77.096C92.7774 75.944 93.7494 75.116 94.8294 74.612C95.9334 74.084 97.0374 73.82 98.1414 73.82C99.9174 73.82 101.285 74.372 102.245 75.476C103.229 76.556 103.721 78.092 103.721 80.084V89.084C103.721 89.924 103.757 90.416 103.829 90.56C103.901 90.704 104.129 90.8 104.513 90.848L106.493 91.064ZM128.712 91.064V92H120.216V91.064L122.196 90.848C122.58 90.8 122.808 90.704 122.88 90.56C122.952 90.416 122.988 89.924 122.988 89.084V80.12C122.988 78.344 122.7 77.096 122.124 76.376C121.548 75.632 120.72 75.26 119.64 75.26C118.848 75.26 117.972 75.5 117.012 75.98C116.052 76.46 115.152 77.396 114.312 78.788V89.084C114.312 89.924 114.348 90.416 114.42 90.56C114.492 90.704 114.72 90.8 115.104 90.848L117.084 91.064V92H108.588V91.064L110.568 90.848C110.952 90.8 111.18 90.704 111.252 90.56C111.324 90.416 111.36 89.924 111.36 89.084V77.096C111.36 76.256 111.324 75.764 111.252 75.62C111.18 75.476 110.952 75.38 110.568 75.332L108.588 75.152V74.18H114.132V77.096C114.996 75.944 115.968 75.116 117.048 74.612C118.152 74.084 119.256 73.82 120.36 73.82C122.136 73.82 123.504 74.372 124.464 75.476C125.448 76.556 125.94 78.092 125.94 80.084V89.084C125.94 89.924 125.976 90.416 126.048 90.56C126.12 90.704 126.348 90.8 126.732 90.848L128.712 91.064ZM146.143 87.896C145.711 89.528 144.895 90.68 143.695 91.352C142.519 92.024 141.211 92.36 139.771 92.36C137.107 92.36 135.115 91.556 133.795 89.948C132.475 88.316 131.815 86.144 131.815 83.432V82.712C131.815 80.024 132.451 77.876 133.723 76.268C134.995 74.636 136.843 73.82 139.267 73.82C140.563 73.82 141.739 74.084 142.795 74.612C143.875 75.14 144.727 75.92 145.351 76.952C145.999 77.984 146.323 79.268 146.323 80.804C146.323 81.524 146.251 82.28 146.107 83.072H135.055V84.152C135.055 86.672 135.439 88.484 136.207 89.588C136.999 90.668 138.271 91.208 140.023 91.208C141.127 91.208 142.039 90.92 142.759 90.344C143.503 89.768 143.995 88.772 144.235 87.356L146.143 87.896ZM139.267 74.972C137.851 74.972 136.795 75.512 136.099 76.592C135.403 77.672 135.055 79.448 135.055 81.92H143.155V81.812C143.203 81.5 143.239 81.2 143.263 80.912C143.287 80.6 143.299 80.324 143.299 80.084C143.299 78.284 142.927 76.988 142.183 76.196C141.439 75.38 140.467 74.972 139.267 74.972ZM158.145 74.972C156.825 74.972 155.793 75.524 155.049 76.628C154.329 77.708 153.969 79.496 153.969 81.992V84.152C153.969 86.672 154.329 88.484 155.049 89.588C155.793 90.668 156.993 91.208 158.649 91.208C159.777 91.208 160.689 90.92 161.385 90.344C162.081 89.768 162.549 88.772 162.789 87.356L164.697 87.896C164.265 89.528 163.473 90.68 162.321 91.352C161.169 92.024 159.885 92.36 158.469 92.36C155.877 92.36 153.933 91.556 152.637 89.948C151.365 88.316 150.729 86.144 150.729 83.432V82.712C150.729 80.024 151.365 77.876 152.637 76.268C153.909 74.636 155.745 73.82 158.145 73.82C159.681 73.82 160.953 74.12 161.961 74.72C162.993 75.32 163.725 76.136 164.157 77.168C164.589 78.176 164.709 79.292 164.517 80.516L161.673 80.948C161.937 79.028 161.757 77.552 161.133 76.52C160.533 75.488 159.537 74.972 158.145 74.972ZM179.671 88.328C179.311 89.72 178.747 90.74 177.979 91.388C177.211 92.036 176.227 92.36 175.027 92.36C173.875 92.36 172.939 92.108 172.219 91.604C171.499 91.076 170.971 90.392 170.635 89.552C170.299 88.712 170.131 87.836 170.131 86.924V77.096C170.131 76.256 170.095 75.764 170.023 75.62C169.975 75.476 169.747 75.38 169.339 75.332L167.359 75.152V74.18H170.131V69.464L173.083 68.852V74.18H178.951V75.332H173.083V87.212C173.083 88.724 173.287 89.768 173.695 90.344C174.127 90.92 174.691 91.208 175.387 91.208C176.083 91.208 176.611 90.944 176.971 90.416C177.355 89.888 177.631 89.024 177.799 87.824L179.671 88.328ZM199.085 91.064V92H189.869V91.064L191.849 90.848C192.233 90.8 192.461 90.704 192.533 90.56C192.605 90.416 192.641 89.924 192.641 89.084V77.096C192.641 76.256 192.605 75.764 192.533 75.62C192.485 75.476 192.257 75.38 191.849 75.332L189.869 75.152V74.18H192.641V71.588C192.641 70.46 192.809 69.392 193.145 68.384C193.505 67.376 194.117 66.56 194.981 65.936C195.845 65.312 197.033 65 198.545 65C200.537 65 202.013 65.54 202.973 66.62C203.933 67.7 204.281 69.02 204.017 70.58L201.209 70.976C201.425 69.32 201.305 68.108 200.849 67.34C200.417 66.548 199.649 66.152 198.545 66.152C197.921 66.152 197.381 66.296 196.925 66.584C196.493 66.848 196.157 67.34 195.917 68.06C195.701 68.756 195.593 69.764 195.593 71.084V74.18H201.317V75.332H195.593V89.084C195.593 89.924 195.629 90.428 195.701 90.596C195.773 90.74 196.001 90.824 196.385 90.848L199.085 91.064ZM219.191 82.712V83.432C219.191 86.144 218.507 88.316 217.139 89.948C215.795 91.556 213.875 92.36 211.379 92.36C208.907 92.36 206.987 91.556 205.619 89.948C204.275 88.316 203.603 86.144 203.603 83.432V82.712C203.603 80.024 204.275 77.876 205.619 76.268C206.963 74.636 208.883 73.82 211.379 73.82C213.875 73.82 215.795 74.636 217.139 76.268C218.507 77.876 219.191 80.024 219.191 82.712ZM215.951 81.992C215.951 79.496 215.555 77.708 214.763 76.628C213.995 75.524 212.867 74.972 211.379 74.972C209.915 74.972 208.787 75.524 207.995 76.628C207.227 77.708 206.843 79.496 206.843 81.992V84.152C206.843 86.672 207.227 88.484 207.995 89.588C208.787 90.668 209.915 91.208 211.379 91.208C212.867 91.208 213.995 90.668 214.763 89.588C215.555 88.484 215.951 86.672 215.951 84.152V81.992ZM241.93 91.064V92H236.386V89.12C235.546 90.248 234.586 91.076 233.506 91.604C232.45 92.108 231.394 92.36 230.338 92.36C228.634 92.36 227.302 91.82 226.342 90.74C225.406 89.636 224.938 88.088 224.938 86.096V77.096C224.938 76.256 224.902 75.764 224.83 75.62C224.758 75.476 224.53 75.38 224.146 75.332L222.166 75.152V74.18H227.89V86.06C227.89 87.836 228.154 89.096 228.682 89.84C229.234 90.56 230.026 90.92 231.058 90.92C231.826 90.92 232.666 90.68 233.578 90.2C234.514 89.72 235.39 88.796 236.206 87.428V77.096C236.206 76.256 236.17 75.764 236.098 75.62C236.026 75.452 235.798 75.356 235.414 75.332L232.714 75.152V74.18H239.158V89.084C239.158 89.924 239.194 90.416 239.266 90.56C239.338 90.704 239.566 90.8 239.95 90.848L241.93 91.064ZM244.221 75.152V74.18H249.765V77.06C250.605 75.932 251.445 75.116 252.285 74.612C253.149 74.084 254.025 73.82 254.913 73.82C255.681 73.82 256.401 74.048 257.073 74.504C257.745 74.96 258.309 75.692 258.765 76.7L256.425 78.104C256.065 77.24 255.657 76.64 255.201 76.304C254.745 75.968 254.241 75.8 253.689 75.8C253.089 75.8 252.489 75.992 251.889 76.376C251.313 76.76 250.665 77.48 249.945 78.536V89.084C249.945 89.924 249.981 90.428 250.053 90.596C250.125 90.74 250.353 90.824 250.737 90.848L253.437 91.064V92H244.221V91.064L246.201 90.848C246.585 90.8 246.813 90.704 246.885 90.56C246.957 90.416 246.993 89.924 246.993 89.084V77.096C246.993 76.256 246.957 75.764 246.885 75.62C246.813 75.476 246.585 75.38 246.201 75.332L244.221 75.152Z" fill="black"/>
</svg>
