<svg width="300" height="200" viewBox="0 0 300 200" fill="none" xmlns="http://www.w3.org/2000/svg">
<rect width="300" height="200" fill="white"/>
<path d="M56.684 74.972C55.364 74.972 54.332 75.524 53.588 76.628C52.868 77.708 52.508 79.496 52.508 81.992V84.152C52.508 86.672 52.868 88.484 53.588 89.588C54.332 90.668 55.532 91.208 57.188 91.208C58.316 91.208 59.228 90.92 59.924 90.344C60.62 89.768 61.088 88.772 61.328 87.356L63.236 87.896C62.804 89.528 62.012 90.68 60.86 91.352C59.708 92.024 58.424 92.36 57.008 92.36C54.416 92.36 52.472 91.556 51.176 89.948C49.904 88.316 49.268 86.144 49.268 83.432V82.712C49.268 80.024 49.904 77.876 51.176 76.268C52.448 74.636 54.284 73.82 56.684 73.82C58.22 73.82 59.492 74.12 60.5 74.72C61.532 75.32 62.264 76.136 62.696 77.168C63.128 78.176 63.248 79.292 63.056 80.516L60.212 80.948C60.476 79.028 60.296 77.552 59.672 76.52C59.072 75.488 58.076 74.972 56.684 74.972ZM82.8903 82.712V83.432C82.8903 86.144 82.2063 88.316 80.8383 89.948C79.4943 91.556 77.5743 92.36 75.0783 92.36C72.6063 92.36 70.6863 91.556 69.3183 89.948C67.9743 88.316 67.3023 86.144 67.3023 83.432V82.712C67.3023 80.024 67.9743 77.876 69.3183 76.268C70.6623 74.636 72.5823 73.82 75.0783 73.82C77.5743 73.82 79.4943 74.636 80.8383 76.268C82.2063 77.876 82.8903 80.024 82.8903 82.712ZM79.6503 81.992C79.6503 79.496 79.2543 77.708 78.4623 76.628C77.6943 75.524 76.5663 74.972 75.0783 74.972C73.6143 74.972 72.4863 75.524 71.6943 76.628C70.9263 77.708 70.5423 79.496 70.5423 81.992V84.152C70.5423 86.672 70.9263 88.484 71.6943 89.588C72.4863 90.668 73.6143 91.208 75.0783 91.208C76.5663 91.208 77.6943 90.668 78.4623 89.588C79.2543 88.484 79.6503 86.672 79.6503 84.152V81.992ZM86.3694 75.152V74.18H91.9134V77.06C92.7534 75.932 93.5934 75.116 94.4334 74.612C95.2974 74.084 96.1734 73.82 97.0614 73.82C97.8294 73.82 98.5494 74.048 99.2214 74.504C99.8934 74.96 100.457 75.692 100.913 76.7L98.5734 78.104C98.2134 77.24 97.8054 76.64 97.3494 76.304C96.8934 75.968 96.3894 75.8 95.8374 75.8C95.2374 75.8 94.6374 75.992 94.0374 76.376C93.4614 76.76 92.8134 77.48 92.0934 78.536V89.084C92.0934 89.924 92.1294 90.428 92.2014 90.596C92.2734 90.74 92.5014 90.824 92.8854 90.848L95.5854 91.064V92H86.3694V91.064L88.3494 90.848C88.7334 90.8 88.9614 90.704 89.0334 90.56C89.1054 90.416 89.1414 89.924 89.1414 89.084V77.096C89.1414 76.256 89.1054 75.764 89.0334 75.62C88.9614 75.476 88.7334 75.38 88.3494 75.332L86.3694 75.152ZM102.19 75.152V74.18H107.734V77.06C108.574 75.932 109.414 75.116 110.254 74.612C111.118 74.084 111.994 73.82 112.882 73.82C113.65 73.82 114.37 74.048 115.042 74.504C115.714 74.96 116.278 75.692 116.734 76.7L114.394 78.104C114.034 77.24 113.626 76.64 113.17 76.304C112.714 75.968 112.21 75.8 111.658 75.8C111.058 75.8 110.458 75.992 109.858 76.376C109.282 76.76 108.634 77.48 107.914 78.536V89.084C107.914 89.924 107.95 90.428 108.022 90.596C108.094 90.74 108.322 90.824 108.706 90.848L111.406 91.064V92H102.19V91.064L104.17 90.848C104.554 90.8 104.782 90.704 104.854 90.56C104.926 90.416 104.962 89.924 104.962 89.084V77.096C104.962 76.256 104.926 75.764 104.854 75.62C104.782 75.476 104.554 75.38 104.17 75.332L102.19 75.152ZM137.27 91.064V92H131.726V89.12C130.886 90.248 129.926 91.076 128.846 91.604C127.79 92.108 126.734 92.36 125.678 92.36C123.974 92.36 122.642 91.82 121.682 90.74C120.746 89.636 120.278 88.088 120.278 86.096V77.096C120.278 76.256 120.242 75.764 120.17 75.62C120.098 75.476 119.87 75.38 119.486 75.332L117.506 75.152V74.18H123.23V86.06C123.23 87.836 123.494 89.096 124.022 89.84C124.574 90.56 125.366 90.92 126.398 90.92C127.166 90.92 128.006 90.68 128.918 90.2C129.854 89.72 130.73 88.796 131.546 87.428V77.096C131.546 76.256 131.51 75.764 131.438 75.62C131.366 75.452 131.138 75.356 130.754 75.332L128.054 75.152V74.18H134.498V89.084C134.498 89.924 134.534 90.416 134.606 90.56C134.678 90.704 134.906 90.8 135.29 90.848L137.27 91.064ZM139.309 75.116V74.18H144.853V77.06C145.573 75.932 146.377 75.116 147.265 74.612C148.177 74.084 149.185 73.82 150.289 73.82C152.353 73.82 153.949 74.6 155.077 76.16C156.229 77.72 156.805 79.904 156.805 82.712V83.432C156.805 86.168 156.145 88.34 154.825 89.948C153.505 91.556 151.669 92.36 149.317 92.36C147.637 92.36 146.209 91.844 145.033 90.812V96.752C145.033 97.568 145.069 98.048 145.141 98.192C145.213 98.36 145.441 98.468 145.825 98.516L148.525 98.696V99.668H139.309V98.696L141.289 98.516C141.673 98.468 141.901 98.36 141.973 98.192C142.045 98.048 142.081 97.568 142.081 96.752V77.096C142.081 76.256 142.045 75.764 141.973 75.62C141.901 75.476 141.673 75.38 141.289 75.332L139.309 75.116ZM149.821 75.116C149.077 75.116 148.297 75.356 147.481 75.836C146.689 76.316 145.873 77.288 145.033 78.752V89.048C146.065 90.464 147.433 91.172 149.137 91.172C150.697 91.172 151.825 90.584 152.521 89.408C153.217 88.208 153.565 86.576 153.565 84.512V81.632C153.565 79.376 153.241 77.732 152.593 76.7C151.945 75.644 151.021 75.116 149.821 75.116ZM172.324 88.328C171.964 89.72 171.4 90.74 170.632 91.388C169.864 92.036 168.88 92.36 167.68 92.36C166.528 92.36 165.592 92.108 164.872 91.604C164.152 91.076 163.624 90.392 163.288 89.552C162.952 88.712 162.784 87.836 162.784 86.924V77.096C162.784 76.256 162.748 75.764 162.676 75.62C162.628 75.476 162.4 75.38 161.992 75.332L160.012 75.152V74.18H162.784V69.464L165.736 68.852V74.18H171.604V75.332H165.736V87.212C165.736 88.724 165.94 89.768 166.348 90.344C166.78 90.92 167.344 91.208 168.04 91.208C168.736 91.208 169.264 90.944 169.624 90.416C170.008 89.888 170.284 89.024 170.452 87.824L172.324 88.328ZM174.113 66.332V65.36H179.837V89.084C179.837 89.924 179.873 90.416 179.945 90.56C180.017 90.704 180.245 90.8 180.629 90.848L182.609 91.064V92H174.113V91.064L176.093 90.848C176.477 90.8 176.705 90.704 176.777 90.56C176.849 90.416 176.885 89.924 176.885 89.084V68.276C176.885 67.436 176.849 66.944 176.777 66.8C176.705 66.656 176.477 66.56 176.093 66.512L174.113 66.332ZM200.248 87.896C199.816 89.528 199 90.68 197.8 91.352C196.624 92.024 195.316 92.36 193.876 92.36C191.212 92.36 189.22 91.556 187.9 89.948C186.58 88.316 185.92 86.144 185.92 83.432V82.712C185.92 80.024 186.556 77.876 187.828 76.268C189.1 74.636 190.948 73.82 193.372 73.82C194.668 73.82 195.844 74.084 196.9 74.612C197.98 75.14 198.832 75.92 199.456 76.952C200.104 77.984 200.428 79.268 200.428 80.804C200.428 81.524 200.356 82.28 200.212 83.072H189.16V84.152C189.16 86.672 189.544 88.484 190.312 89.588C191.104 90.668 192.376 91.208 194.128 91.208C195.232 91.208 196.144 90.92 196.864 90.344C197.608 89.768 198.1 88.772 198.34 87.356L200.248 87.896ZM193.372 74.972C191.956 74.972 190.9 75.512 190.204 76.592C189.508 77.672 189.16 79.448 189.16 81.92H197.26V81.812C197.308 81.5 197.344 81.2 197.368 80.912C197.392 80.6 197.404 80.324 197.404 80.084C197.404 78.284 197.032 76.988 196.288 76.196C195.544 75.38 194.572 74.972 193.372 74.972Z" fill="black"/>
</svg>
