<svg width="300" height="200" viewBox="0 0 300 200" fill="none" xmlns="http://www.w3.org/2000/svg">
<rect width="300" height="200" fill="white"/>
<path d="M68.024 91.064V92H59.528V91.064L61.508 90.848C61.892 90.8 62.12 90.704 62.192 90.56C62.264 90.416 62.3 89.924 62.3 89.084V80.12C62.3 78.344 62.024 77.096 61.472 76.376C60.944 75.632 60.164 75.26 59.132 75.26C58.388 75.26 57.548 75.5 56.612 75.98C55.7 76.46 54.824 77.384 53.984 78.752V89.084C53.984 89.924 54.02 90.416 54.092 90.56C54.164 90.704 54.392 90.8 54.776 90.848L56.756 91.064V92H48.26V91.064L50.24 90.848C50.624 90.8 50.852 90.704 50.924 90.56C50.996 90.416 51.032 89.924 51.032 89.084V77.096C51.032 76.256 50.996 75.764 50.924 75.62C50.852 75.476 50.624 75.38 50.24 75.332L48.26 75.152V74.18H53.804V77.096C54.644 75.968 55.592 75.14 56.648 74.612C57.728 74.084 58.796 73.82 59.852 73.82C62.444 73.82 64.112 75.008 64.856 77.384C65.744 76.136 66.728 75.236 67.808 74.684C68.912 74.108 70.016 73.82 71.12 73.82C72.824 73.82 74.144 74.372 75.08 75.476C76.04 76.556 76.52 78.092 76.52 80.084V89.084C76.52 89.924 76.556 90.416 76.628 90.56C76.7 90.704 76.928 90.8 77.312 90.848L79.292 91.064V92H70.796V91.064L72.776 90.848C73.16 90.8 73.388 90.704 73.46 90.56C73.532 90.416 73.568 89.924 73.568 89.084V80.12C73.568 78.344 73.292 77.096 72.74 76.376C72.212 75.632 71.432 75.26 70.4 75.26C69.656 75.26 68.804 75.512 67.844 76.016C66.908 76.496 66.02 77.444 65.18 78.86C65.204 79.052 65.216 79.256 65.216 79.472C65.24 79.664 65.252 79.868 65.252 80.084V89.084C65.252 89.924 65.288 90.416 65.36 90.56C65.432 90.704 65.66 90.8 66.044 90.848L68.024 91.064ZM85.5892 70.148C85.0132 70.148 84.5332 69.968 84.1492 69.608C83.7892 69.224 83.6092 68.732 83.6092 68.132C83.6092 67.556 83.7892 67.088 84.1492 66.728C84.5332 66.368 85.0132 66.188 85.5892 66.188C86.1652 66.188 86.6332 66.368 86.9932 66.728C87.3772 67.088 87.5692 67.556 87.5692 68.132C87.5692 68.732 87.3772 69.224 86.9932 69.608C86.6332 69.968 86.1652 70.148 85.5892 70.148ZM81.3772 75.152V74.18H87.1012V89.084C87.1012 89.924 87.1372 90.416 87.2092 90.56C87.2812 90.704 87.5092 90.8 87.8932 90.848L89.8732 91.064V92H81.3772V91.064L83.3572 90.848C83.7412 90.8 83.9692 90.704 84.0412 90.56C84.1132 90.416 84.1492 89.924 84.1492 89.084V77.096C84.1492 76.256 84.1132 75.764 84.0412 75.62C83.9692 75.476 83.7412 75.38 83.3572 75.332L81.3772 75.152ZM112.259 91.064V92H103.763V91.064L105.743 90.848C106.127 90.8 106.355 90.704 106.427 90.56C106.499 90.416 106.535 89.924 106.535 89.084V80.12C106.535 78.344 106.247 77.096 105.671 76.376C105.095 75.632 104.267 75.26 103.187 75.26C102.395 75.26 101.519 75.5 100.559 75.98C99.599 76.46 98.699 77.396 97.859 78.788V89.084C97.859 89.924 97.895 90.416 97.967 90.56C98.039 90.704 98.267 90.8 98.651 90.848L100.631 91.064V92H92.135V91.064L94.115 90.848C94.499 90.8 94.727 90.704 94.799 90.56C94.871 90.416 94.907 89.924 94.907 89.084V77.096C94.907 76.256 94.871 75.764 94.799 75.62C94.727 75.476 94.499 75.38 94.115 75.332L92.135 75.152V74.18H97.679V77.096C98.543 75.944 99.515 75.116 100.595 74.612C101.699 74.084 102.803 73.82 103.907 73.82C105.683 73.82 107.051 74.372 108.011 75.476C108.995 76.556 109.487 78.092 109.487 80.084V89.084C109.487 89.924 109.523 90.416 109.595 90.56C109.667 90.704 109.895 90.8 110.279 90.848L112.259 91.064ZM129.69 87.896C129.258 89.528 128.442 90.68 127.242 91.352C126.066 92.024 124.758 92.36 123.318 92.36C120.654 92.36 118.662 91.556 117.342 89.948C116.022 88.316 115.362 86.144 115.362 83.432V82.712C115.362 80.024 115.998 77.876 117.27 76.268C118.542 74.636 120.39 73.82 122.814 73.82C124.11 73.82 125.286 74.084 126.342 74.612C127.422 75.14 128.274 75.92 128.898 76.952C129.546 77.984 129.87 79.268 129.87 80.804C129.87 81.524 129.798 82.28 129.654 83.072H118.602V84.152C118.602 86.672 118.986 88.484 119.754 89.588C120.546 90.668 121.818 91.208 123.57 91.208C124.674 91.208 125.586 90.92 126.306 90.344C127.05 89.768 127.542 88.772 127.782 87.356L129.69 87.896ZM122.814 74.972C121.398 74.972 120.342 75.512 119.646 76.592C118.95 77.672 118.602 79.448 118.602 81.92H126.702V81.812C126.75 81.5 126.786 81.2 126.81 80.912C126.834 80.6 126.846 80.324 126.846 80.084C126.846 78.284 126.474 76.988 125.73 76.196C124.986 75.38 124.014 74.972 122.814 74.972ZM140.864 84.728L138.668 84.188C135.668 83.42 134.168 81.692 134.168 79.004C134.168 78.116 134.372 77.276 134.78 76.484C135.188 75.692 135.836 75.056 136.724 74.576C137.636 74.072 138.8 73.82 140.216 73.82C141.8 73.82 143.072 74.084 144.032 74.612C144.992 75.14 145.664 75.824 146.048 76.664C146.432 77.504 146.552 78.416 146.408 79.4L143.6 79.904C143.888 78.344 143.72 77.132 143.096 76.268C142.496 75.404 141.5 74.972 140.108 74.972C139.028 74.972 138.164 75.248 137.516 75.8C136.868 76.328 136.544 77.108 136.544 78.14C136.544 78.908 136.784 79.592 137.264 80.192C137.744 80.768 138.548 81.2 139.676 81.488L141.944 82.028C143.528 82.412 144.752 83.024 145.616 83.864C146.504 84.704 146.948 85.808 146.948 87.176C146.948 88.712 146.384 89.96 145.256 90.92C144.152 91.88 142.568 92.36 140.504 92.36C139.52 92.36 138.56 92.216 137.624 91.928C136.712 91.616 135.908 91.136 135.212 90.488C134.54 89.816 134.048 88.952 133.736 87.896L135.752 87.176C136.016 88.688 136.592 89.744 137.48 90.344C138.368 90.944 139.388 91.244 140.54 91.244C141.212 91.244 141.848 91.136 142.448 90.92C143.072 90.704 143.576 90.368 143.96 89.912C144.344 89.432 144.536 88.82 144.536 88.076C144.536 87.308 144.272 86.648 143.744 86.096C143.216 85.544 142.256 85.088 140.864 84.728ZM173.796 76.88L169.764 92H167.424L162.708 77.132L157.992 92H155.76L151.764 76.88C151.596 76.184 151.452 75.764 151.332 75.62C151.236 75.476 150.996 75.38 150.612 75.332L148.776 75.152V74.18H156.948V75.152L155.076 75.332C154.692 75.38 154.476 75.476 154.428 75.62C154.404 75.764 154.488 76.184 154.68 76.88L157.776 88.76L162.348 74.18H164.688L169.332 88.976L172.464 76.88C172.656 76.184 172.728 75.764 172.68 75.62C172.656 75.476 172.452 75.38 172.068 75.332L170.196 75.152V74.18H176.784V75.152L174.948 75.332C174.588 75.38 174.348 75.476 174.228 75.62C174.132 75.764 173.988 76.184 173.796 76.88ZM192.866 87.896C192.434 89.528 191.618 90.68 190.418 91.352C189.242 92.024 187.934 92.36 186.494 92.36C183.83 92.36 181.838 91.556 180.518 89.948C179.198 88.316 178.538 86.144 178.538 83.432V82.712C178.538 80.024 179.174 77.876 180.446 76.268C181.718 74.636 183.566 73.82 185.99 73.82C187.286 73.82 188.462 74.084 189.518 74.612C190.598 75.14 191.45 75.92 192.074 76.952C192.722 77.984 193.046 79.268 193.046 80.804C193.046 81.524 192.974 82.28 192.83 83.072H181.778V84.152C181.778 86.672 182.162 88.484 182.93 89.588C183.722 90.668 184.994 91.208 186.746 91.208C187.85 91.208 188.762 90.92 189.482 90.344C190.226 89.768 190.718 88.772 190.958 87.356L192.866 87.896ZM185.99 74.972C184.574 74.972 183.518 75.512 182.822 76.592C182.126 77.672 181.778 79.448 181.778 81.92H189.878V81.812C189.926 81.5 189.962 81.2 189.986 80.912C190.01 80.6 190.022 80.324 190.022 80.084C190.022 78.284 189.65 76.988 188.906 76.196C188.162 75.38 187.19 74.972 185.99 74.972ZM211.78 87.896C211.348 89.528 210.532 90.68 209.332 91.352C208.156 92.024 206.848 92.36 205.408 92.36C202.744 92.36 200.752 91.556 199.432 89.948C198.112 88.316 197.452 86.144 197.452 83.432V82.712C197.452 80.024 198.088 77.876 199.36 76.268C200.632 74.636 202.48 73.82 204.904 73.82C206.2 73.82 207.376 74.084 208.432 74.612C209.512 75.14 210.364 75.92 210.988 76.952C211.636 77.984 211.96 79.268 211.96 80.804C211.96 81.524 211.888 82.28 211.744 83.072H200.692V84.152C200.692 86.672 201.076 88.484 201.844 89.588C202.636 90.668 203.908 91.208 205.66 91.208C206.764 91.208 207.676 90.92 208.396 90.344C209.14 89.768 209.632 88.772 209.872 87.356L211.78 87.896ZM204.904 74.972C203.488 74.972 202.432 75.512 201.736 76.592C201.04 77.672 200.692 79.448 200.692 81.92H208.792V81.812C208.84 81.5 208.876 81.2 208.9 80.912C208.924 80.6 208.936 80.324 208.936 80.084C208.936 78.284 208.564 76.988 207.82 76.196C207.076 75.38 206.104 74.972 204.904 74.972ZM215.106 75.116V74.18H220.65V77.06C221.37 75.932 222.174 75.116 223.062 74.612C223.974 74.084 224.982 73.82 226.086 73.82C228.15 73.82 229.746 74.6 230.874 76.16C232.026 77.72 232.602 79.904 232.602 82.712V83.432C232.602 86.168 231.942 88.34 230.622 89.948C229.302 91.556 227.466 92.36 225.114 92.36C223.434 92.36 222.006 91.844 220.83 90.812V96.752C220.83 97.568 220.866 98.048 220.938 98.192C221.01 98.36 221.238 98.468 221.622 98.516L224.322 98.696V99.668H215.106V98.696L217.086 98.516C217.47 98.468 217.698 98.36 217.77 98.192C217.842 98.048 217.878 97.568 217.878 96.752V77.096C217.878 76.256 217.842 75.764 217.77 75.62C217.698 75.476 217.47 75.38 217.086 75.332L215.106 75.116ZM225.618 75.116C224.874 75.116 224.094 75.356 223.278 75.836C222.486 76.316 221.67 77.288 220.83 78.752V89.048C221.862 90.464 223.23 91.172 224.934 91.172C226.494 91.172 227.622 90.584 228.318 89.408C229.014 88.208 229.362 86.576 229.362 84.512V81.632C229.362 79.376 229.038 77.732 228.39 76.7C227.742 75.644 226.818 75.116 225.618 75.116ZM251.576 87.896C251.144 89.528 250.328 90.68 249.128 91.352C247.952 92.024 246.644 92.36 245.204 92.36C242.54 92.36 240.548 91.556 239.228 89.948C237.908 88.316 237.248 86.144 237.248 83.432V82.712C237.248 80.024 237.884 77.876 239.156 76.268C240.428 74.636 242.276 73.82 244.7 73.82C245.996 73.82 247.172 74.084 248.228 74.612C249.308 75.14 250.16 75.92 250.784 76.952C251.432 77.984 251.756 79.268 251.756 80.804C251.756 81.524 251.684 82.28 251.54 83.072H240.488V84.152C240.488 86.672 240.872 88.484 241.64 89.588C242.432 90.668 243.704 91.208 245.456 91.208C246.56 91.208 247.472 90.92 248.192 90.344C248.936 89.768 249.428 88.772 249.668 87.356L251.576 87.896ZM244.7 74.972C243.284 74.972 242.228 75.512 241.532 76.592C240.836 77.672 240.488 79.448 240.488 81.92H248.588V81.812C248.636 81.5 248.672 81.2 248.696 80.912C248.72 80.6 248.732 80.324 248.732 80.084C248.732 78.284 248.36 76.988 247.616 76.196C246.872 75.38 245.9 74.972 244.7 74.972ZM255.155 75.152V74.18H260.699V77.06C261.539 75.932 262.379 75.116 263.219 74.612C264.083 74.084 264.959 73.82 265.847 73.82C266.615 73.82 267.335 74.048 268.007 74.504C268.679 74.96 269.243 75.692 269.699 76.7L267.359 78.104C266.999 77.24 266.591 76.64 266.135 76.304C265.679 75.968 265.175 75.8 264.623 75.8C264.023 75.8 263.423 75.992 262.823 76.376C262.247 76.76 261.599 77.48 260.879 78.536V89.084C260.879 89.924 260.915 90.428 260.987 90.596C261.059 90.74 261.287 90.824 261.671 90.848L264.371 91.064V92H255.155V91.064L257.135 90.848C257.519 90.8 257.747 90.704 257.819 90.56C257.891 90.416 257.927 89.924 257.927 89.084V77.096C257.927 76.256 257.891 75.764 257.819 75.62C257.747 75.476 257.519 75.38 257.135 75.332L255.155 75.152Z" fill="black"/>
</svg>
