<svg width="300" height="200" viewBox="0 0 300 200" fill="none" xmlns="http://www.w3.org/2000/svg">
<rect width="300" height="200" fill="white"/>
<path d="M55.856 84.728L53.66 84.188C50.66 83.42 49.16 81.692 49.16 79.004C49.16 78.116 49.364 77.276 49.772 76.484C50.18 75.692 50.828 75.056 51.716 74.576C52.628 74.072 53.792 73.82 55.208 73.82C56.792 73.82 58.064 74.084 59.024 74.612C59.984 75.14 60.656 75.824 61.04 76.664C61.424 77.504 61.544 78.416 61.4 79.4L58.592 79.904C58.88 78.344 58.712 77.132 58.088 76.268C57.488 75.404 56.492 74.972 55.1 74.972C54.02 74.972 53.156 75.248 52.508 75.8C51.86 76.328 51.536 77.108 51.536 78.14C51.536 78.908 51.776 79.592 52.256 80.192C52.736 80.768 53.54 81.2 54.668 81.488L56.936 82.028C58.52 82.412 59.744 83.024 60.608 83.864C61.496 84.704 61.94 85.808 61.94 87.176C61.94 88.712 61.376 89.96 60.248 90.92C59.144 91.88 57.56 92.36 55.496 92.36C54.512 92.36 53.552 92.216 52.616 91.928C51.704 91.616 50.9 91.136 50.204 90.488C49.532 89.816 49.04 88.952 48.728 87.896L50.744 87.176C51.008 88.688 51.584 89.744 52.472 90.344C53.36 90.944 54.38 91.244 55.532 91.244C56.204 91.244 56.84 91.136 57.44 90.92C58.064 90.704 58.568 90.368 58.952 89.912C59.336 89.432 59.528 88.82 59.528 88.076C59.528 87.308 59.264 86.648 58.736 86.096C58.208 85.544 57.248 85.088 55.856 84.728ZM65.0588 66.332V65.36H70.7828V89.084C70.7828 89.924 70.8188 90.416 70.8908 90.56C70.9628 90.704 71.1908 90.8 71.5748 90.848L73.5548 91.064V92H65.0588V91.064L67.0388 90.848C67.4228 90.8 67.6508 90.704 67.7228 90.56C67.7948 90.416 67.8308 89.924 67.8308 89.084V68.276C67.8308 67.436 67.7948 66.944 67.7228 66.8C67.6508 66.656 67.4228 66.56 67.0388 66.512L65.0588 66.332ZM80.0697 70.148C79.4937 70.148 79.0137 69.968 78.6297 69.608C78.2697 69.224 78.0897 68.732 78.0897 68.132C78.0897 67.556 78.2697 67.088 78.6297 66.728C79.0137 66.368 79.4937 66.188 80.0697 66.188C80.6457 66.188 81.1137 66.368 81.4737 66.728C81.8577 67.088 82.0497 67.556 82.0497 68.132C82.0497 68.732 81.8577 69.224 81.4737 69.608C81.1137 69.968 80.6457 70.148 80.0697 70.148ZM75.8577 75.152V74.18H81.5817V89.084C81.5817 89.924 81.6177 90.416 81.6897 90.56C81.7617 90.704 81.9897 90.8 82.3737 90.848L84.3537 91.064V92H75.8577V91.064L77.8377 90.848C78.2217 90.8 78.4497 90.704 78.5217 90.56C78.5937 90.416 78.6297 89.924 78.6297 89.084V77.096C78.6297 76.256 78.5937 75.764 78.5217 75.62C78.4497 75.476 78.2217 75.38 77.8377 75.332L75.8577 75.152ZM105.227 91.1V92H99.6835V89.156C98.9395 90.26 98.1115 91.076 97.1995 91.604C96.3115 92.108 95.3155 92.36 94.2115 92.36C92.1475 92.36 90.5395 91.592 89.3875 90.056C88.2595 88.496 87.6955 86.3 87.6955 83.468V82.748C87.6955 80.036 88.3555 77.876 89.6755 76.268C91.0195 74.636 92.8555 73.82 95.1835 73.82C96.8875 73.82 98.3275 74.348 99.5035 75.404V68.276C99.5035 67.436 99.4675 66.944 99.3955 66.8C99.3235 66.656 99.0955 66.56 98.7115 66.512L96.7315 66.332V65.36H102.455V89.084C102.455 89.924 102.491 90.416 102.563 90.56C102.635 90.704 102.863 90.8 103.247 90.848L105.227 91.1ZM90.9355 84.548C90.9355 86.804 91.2595 88.46 91.9075 89.516C92.5795 90.572 93.5035 91.1 94.6795 91.1C95.4475 91.1 96.2395 90.86 97.0555 90.38C97.8715 89.9 98.6875 88.928 99.5035 87.464V77.168C98.4475 75.752 97.0675 75.044 95.3635 75.044C93.8275 75.044 92.6995 75.632 91.9795 76.808C91.2835 77.984 90.9355 79.604 90.9355 81.668V84.548ZM111.71 70.148C111.134 70.148 110.654 69.968 110.27 69.608C109.91 69.224 109.73 68.732 109.73 68.132C109.73 67.556 109.91 67.088 110.27 66.728C110.654 66.368 111.134 66.188 111.71 66.188C112.286 66.188 112.754 66.368 113.114 66.728C113.498 67.088 113.69 67.556 113.69 68.132C113.69 68.732 113.498 69.224 113.114 69.608C112.754 69.968 112.286 70.148 111.71 70.148ZM107.498 75.152V74.18H113.222V89.084C113.222 89.924 113.258 90.416 113.33 90.56C113.402 90.704 113.63 90.8 114.014 90.848L115.994 91.064V92H107.498V91.064L109.478 90.848C109.862 90.8 110.09 90.704 110.162 90.56C110.234 90.416 110.27 89.924 110.27 89.084V77.096C110.27 76.256 110.234 75.764 110.162 75.62C110.09 75.476 109.862 75.38 109.478 75.332L107.498 75.152ZM138.38 91.064V92H129.884V91.064L131.864 90.848C132.248 90.8 132.476 90.704 132.548 90.56C132.62 90.416 132.656 89.924 132.656 89.084V80.12C132.656 78.344 132.368 77.096 131.792 76.376C131.216 75.632 130.388 75.26 129.308 75.26C128.516 75.26 127.64 75.5 126.68 75.98C125.72 76.46 124.82 77.396 123.98 78.788V89.084C123.98 89.924 124.016 90.416 124.088 90.56C124.16 90.704 124.388 90.8 124.772 90.848L126.752 91.064V92H118.256V91.064L120.236 90.848C120.62 90.8 120.848 90.704 120.92 90.56C120.992 90.416 121.028 89.924 121.028 89.084V77.096C121.028 76.256 120.992 75.764 120.92 75.62C120.848 75.476 120.62 75.38 120.236 75.332L118.256 75.152V74.18H123.8V77.096C124.664 75.944 125.636 75.116 126.716 74.612C127.82 74.084 128.924 73.82 130.028 73.82C131.804 73.82 133.172 74.372 134.132 75.476C135.116 76.556 135.608 78.092 135.608 80.084V89.084C135.608 89.924 135.644 90.416 135.716 90.56C135.788 90.704 136.016 90.8 136.4 90.848L138.38 91.064ZM157.251 94.088C157.251 96.008 156.543 97.472 155.127 98.48C153.735 99.512 151.791 100.028 149.295 100.028C146.559 100.028 144.555 99.548 143.283 98.588C142.011 97.652 141.351 96.464 141.303 95.024L143.967 94.484C143.871 95.804 144.219 96.86 145.011 97.652C145.827 98.468 147.255 98.876 149.295 98.876C151.119 98.876 152.583 98.54 153.687 97.868C154.815 97.196 155.379 96.212 155.379 94.916C155.379 93.956 155.055 93.236 154.407 92.756C153.759 92.276 152.691 92.036 151.203 92.036H146.919C145.311 92.036 144.183 91.7 143.535 91.028C142.887 90.332 142.563 89.564 142.563 88.724C142.563 88.028 142.731 87.38 143.067 86.78C143.427 86.156 143.991 85.544 144.759 84.944C143.799 84.488 143.019 83.828 142.419 82.964C141.819 82.076 141.519 81.008 141.519 79.76C141.519 78.44 141.819 77.348 142.419 76.484C143.043 75.596 143.859 74.936 144.867 74.504C145.899 74.048 147.039 73.82 148.287 73.82H148.899C150.219 73.82 151.395 74.06 152.427 74.54L157.647 72.74L158.043 75.44H153.831C154.383 75.92 154.815 76.52 155.127 77.24C155.463 77.96 155.631 78.8 155.631 79.76C155.631 81.032 155.319 82.112 154.695 83C154.095 83.888 153.291 84.56 152.283 85.016C151.275 85.448 150.147 85.664 148.899 85.664H148.287C147.879 85.664 147.483 85.64 147.099 85.592C146.715 85.544 146.343 85.472 145.983 85.376C145.455 85.736 145.071 86.108 144.831 86.492C144.615 86.876 144.507 87.272 144.507 87.68C144.507 88.16 144.675 88.544 145.011 88.832C145.371 89.12 145.935 89.264 146.703 89.264H151.383C153.279 89.264 154.731 89.672 155.739 90.488C156.747 91.304 157.251 92.504 157.251 94.088ZM148.899 84.512C149.547 84.512 150.135 84.368 150.663 84.08C151.215 83.792 151.659 83.312 151.995 82.64C152.331 81.944 152.499 80.984 152.499 79.76C152.499 78.512 152.331 77.552 151.995 76.88C151.659 76.184 151.215 75.692 150.663 75.404C150.135 75.116 149.547 74.972 148.899 74.972H148.287C147.639 74.972 147.039 75.116 146.487 75.404C145.935 75.692 145.491 76.184 145.155 76.88C144.819 77.552 144.651 78.512 144.651 79.76C144.651 80.984 144.819 81.944 145.155 82.64C145.491 83.312 145.935 83.792 146.487 84.08C147.039 84.368 147.639 84.512 148.287 84.512H148.899ZM167.821 75.116V74.18H173.365V77.06C174.085 75.932 174.889 75.116 175.777 74.612C176.689 74.084 177.697 73.82 178.801 73.82C180.865 73.82 182.461 74.6 183.589 76.16C184.741 77.72 185.316 79.904 185.316 82.712V83.432C185.316 86.168 184.657 88.34 183.337 89.948C182.017 91.556 180.181 92.36 177.829 92.36C176.149 92.36 174.721 91.844 173.545 90.812V96.752C173.545 97.568 173.581 98.048 173.653 98.192C173.725 98.36 173.953 98.468 174.337 98.516L177.037 98.696V99.668H167.821V98.696L169.801 98.516C170.185 98.468 170.413 98.36 170.485 98.192C170.557 98.048 170.593 97.568 170.593 96.752V77.096C170.593 76.256 170.557 75.764 170.485 75.62C170.413 75.476 170.185 75.38 169.801 75.332L167.821 75.116ZM178.333 75.116C177.589 75.116 176.809 75.356 175.993 75.836C175.201 76.316 174.385 77.288 173.545 78.752V89.048C174.577 90.464 175.945 91.172 177.649 91.172C179.209 91.172 180.337 90.584 181.033 89.408C181.729 88.208 182.077 86.576 182.077 84.512V81.632C182.077 79.376 181.753 77.732 181.105 76.7C180.457 75.644 179.533 75.116 178.333 75.116ZM208.215 91.064V92H202.671V89.12C201.831 90.248 200.871 91.076 199.791 91.604C198.735 92.108 197.679 92.36 196.623 92.36C194.919 92.36 193.587 91.82 192.627 90.74C191.691 89.636 191.223 88.088 191.223 86.096V77.096C191.223 76.256 191.187 75.764 191.115 75.62C191.043 75.476 190.815 75.38 190.431 75.332L188.451 75.152V74.18H194.175V86.06C194.175 87.836 194.439 89.096 194.967 89.84C195.519 90.56 196.311 90.92 197.343 90.92C198.111 90.92 198.951 90.68 199.863 90.2C200.799 89.72 201.675 88.796 202.491 87.428V77.096C202.491 76.256 202.455 75.764 202.383 75.62C202.311 75.452 202.083 75.356 201.699 75.332L198.999 75.152V74.18H205.443V89.084C205.443 89.924 205.479 90.416 205.551 90.56C205.623 90.704 205.851 90.8 206.235 90.848L208.215 91.064ZM223.214 86.852H224.15V92H210.866V91.1L220.514 75.332H215.114C214.322 75.332 213.83 75.392 213.638 75.512C213.47 75.608 213.314 75.86 213.17 76.268L212.198 79.328H211.262V74.18H223.79V75.08L214.214 90.848H220.298C221.114 90.848 221.606 90.8 221.774 90.704C221.966 90.608 222.122 90.344 222.242 89.912L223.214 86.852ZM239.808 86.852H240.744V92H227.46V91.1L237.108 75.332H231.708C230.916 75.332 230.424 75.392 230.232 75.512C230.064 75.608 229.908 75.86 229.764 76.268L228.792 79.328H227.856V74.18H240.384V75.08L230.808 90.848H236.892C237.708 90.848 238.2 90.8 238.368 90.704C238.56 90.608 238.716 90.344 238.836 89.912L239.808 86.852ZM243.442 66.332V65.36H249.166V89.084C249.166 89.924 249.202 90.416 249.274 90.56C249.346 90.704 249.574 90.8 249.958 90.848L251.938 91.064V92H243.442V91.064L245.422 90.848C245.806 90.8 246.034 90.704 246.106 90.56C246.178 90.416 246.214 89.924 246.214 89.084V68.276C246.214 67.436 246.178 66.944 246.106 66.8C246.034 66.656 245.806 66.56 245.422 66.512L243.442 66.332ZM269.576 87.896C269.144 89.528 268.328 90.68 267.128 91.352C265.952 92.024 264.644 92.36 263.204 92.36C260.54 92.36 258.548 91.556 257.228 89.948C255.908 88.316 255.248 86.144 255.248 83.432V82.712C255.248 80.024 255.884 77.876 257.156 76.268C258.428 74.636 260.276 73.82 262.7 73.82C263.996 73.82 265.172 74.084 266.228 74.612C267.308 75.14 268.16 75.92 268.784 76.952C269.432 77.984 269.756 79.268 269.756 80.804C269.756 81.524 269.684 82.28 269.54 83.072H258.488V84.152C258.488 86.672 258.872 88.484 259.64 89.588C260.432 90.668 261.704 91.208 263.456 91.208C264.56 91.208 265.472 90.92 266.192 90.344C266.936 89.768 267.428 88.772 267.668 87.356L269.576 87.896ZM262.7 74.972C261.284 74.972 260.228 75.512 259.532 76.592C258.836 77.672 258.488 79.448 258.488 81.92H266.588V81.812C266.636 81.5 266.672 81.2 266.696 80.912C266.72 80.6 266.732 80.324 266.732 80.084C266.732 78.284 266.36 76.988 265.616 76.196C264.872 75.38 263.9 74.972 262.7 74.972Z" fill="black"/>
</svg>
