<svg width="300" height="200" viewBox="0 0 300 200" fill="none" xmlns="http://www.w3.org/2000/svg">
<rect width="300" height="200" fill="white"/>
<path d="M60.14 88.328C59.78 89.72 59.216 90.74 58.448 91.388C57.68 92.036 56.696 92.36 55.496 92.36C54.344 92.36 53.408 92.108 52.688 91.604C51.968 91.076 51.44 90.392 51.104 89.552C50.768 88.712 50.6 87.836 50.6 86.924V77.096C50.6 76.256 50.564 75.764 50.492 75.62C50.444 75.476 50.216 75.38 49.808 75.332L47.828 75.152V74.18H50.6V69.464L53.552 68.852V74.18H59.42V75.332H53.552V87.212C53.552 88.724 53.756 89.768 54.164 90.344C54.596 90.92 55.16 91.208 55.856 91.208C56.552 91.208 57.08 90.944 57.44 90.416C57.824 89.888 58.1 89.024 58.268 87.824L60.14 88.328ZM66.3939 70.148C65.8179 70.148 65.3379 69.968 64.9539 69.608C64.5939 69.224 64.4139 68.732 64.4139 68.132C64.4139 67.556 64.5939 67.088 64.9539 66.728C65.3379 66.368 65.8179 66.188 66.3939 66.188C66.9699 66.188 67.4379 66.368 67.7979 66.728C68.1819 67.088 68.3739 67.556 68.3739 68.132C68.3739 68.732 68.1819 69.224 67.7979 69.608C67.4379 69.968 66.9699 70.148 66.3939 70.148ZM62.1819 75.152V74.18H67.9059V89.084C67.9059 89.924 67.9419 90.416 68.0139 90.56C68.0859 90.704 68.3139 90.8 68.6979 90.848L70.6779 91.064V92H62.1819V91.064L64.1619 90.848C64.5459 90.8 64.7739 90.704 64.8459 90.56C64.9179 90.416 64.9539 89.924 64.9539 89.084V77.096C64.9539 76.256 64.9179 75.764 64.8459 75.62C64.7739 75.476 64.5459 75.38 64.1619 75.332L62.1819 75.152ZM81.3637 74.972C80.0437 74.972 79.0117 75.524 78.2677 76.628C77.5477 77.708 77.1877 79.496 77.1877 81.992V84.152C77.1877 86.672 77.5477 88.484 78.2677 89.588C79.0117 90.668 80.2117 91.208 81.8677 91.208C82.9957 91.208 83.9077 90.92 84.6037 90.344C85.2997 89.768 85.7677 88.772 86.0077 87.356L87.9157 87.896C87.4837 89.528 86.6917 90.68 85.5397 91.352C84.3877 92.024 83.1037 92.36 81.6877 92.36C79.0957 92.36 77.1517 91.556 75.8557 89.948C74.5837 88.316 73.9477 86.144 73.9477 83.432V82.712C73.9477 80.024 74.5837 77.876 75.8557 76.268C77.1277 74.636 78.9637 73.82 81.3637 73.82C82.8997 73.82 84.1717 74.12 85.1797 74.72C86.2117 75.32 86.9437 76.136 87.3757 77.168C87.8077 78.176 87.9277 79.292 87.7357 80.516L84.8917 80.948C85.1557 79.028 84.9757 77.552 84.3517 76.52C83.7517 75.488 82.7557 74.972 81.3637 74.972ZM111.046 88.328C110.686 89.72 110.122 90.74 109.354 91.388C108.586 92.036 107.602 92.36 106.402 92.36C105.25 92.36 104.314 92.108 103.594 91.604C102.874 91.076 102.346 90.392 102.01 89.552C101.674 88.712 101.506 87.836 101.506 86.924V77.096C101.506 76.256 101.47 75.764 101.398 75.62C101.35 75.476 101.122 75.38 100.714 75.332L98.7343 75.152V74.18H101.506V69.464L104.458 68.852V74.18H110.326V75.332H104.458V87.212C104.458 88.724 104.662 89.768 105.07 90.344C105.502 90.92 106.066 91.208 106.762 91.208C107.458 91.208 107.986 90.944 108.346 90.416C108.73 89.888 109.006 89.024 109.174 87.824L111.046 88.328ZM127.92 92.252C126.048 92.252 124.944 91.388 124.608 89.66C123.768 90.62 122.844 91.316 121.836 91.748C120.828 92.156 119.832 92.36 118.848 92.36C117.168 92.36 115.932 91.892 115.14 90.956C114.348 90.02 113.952 88.892 113.952 87.572C113.952 86.156 114.432 85.04 115.392 84.224C116.376 83.384 118.068 82.964 120.468 82.964H124.536V80.048C124.536 78.128 124.2 76.808 123.528 76.088C122.88 75.344 121.992 74.972 120.864 74.972C120.144 74.972 119.496 75.116 118.92 75.404C118.344 75.692 117.924 76.22 117.66 76.988C117.42 77.732 117.396 78.824 117.588 80.264L114.744 79.832C114.624 78.704 114.768 77.696 115.176 76.808C115.608 75.896 116.304 75.176 117.264 74.648C118.248 74.096 119.472 73.82 120.936 73.82C122.688 73.82 124.032 74.12 124.968 74.72C125.904 75.296 126.552 76.052 126.912 76.988C127.296 77.924 127.488 78.944 127.488 80.048V88.148C127.488 89.372 127.62 90.14 127.884 90.452C128.172 90.764 128.484 90.92 128.82 90.92C129.036 90.92 129.264 90.872 129.504 90.776C129.744 90.656 130.008 90.476 130.296 90.236L130.944 91.136C130.584 91.448 130.152 91.712 129.648 91.928C129.168 92.144 128.592 92.252 127.92 92.252ZM119.856 90.848C120.528 90.848 121.248 90.668 122.016 90.308C122.808 89.924 123.648 89.168 124.536 88.04V84.116H120.864C119.52 84.116 118.536 84.392 117.912 84.944C117.312 85.472 117.012 86.3 117.012 87.428C117.012 88.508 117.24 89.348 117.696 89.948C118.176 90.548 118.896 90.848 119.856 90.848ZM140.954 74.972C139.634 74.972 138.602 75.524 137.858 76.628C137.138 77.708 136.778 79.496 136.778 81.992V84.152C136.778 86.672 137.138 88.484 137.858 89.588C138.602 90.668 139.802 91.208 141.458 91.208C142.586 91.208 143.498 90.92 144.194 90.344C144.89 89.768 145.358 88.772 145.598 87.356L147.506 87.896C147.074 89.528 146.282 90.68 145.13 91.352C143.978 92.024 142.694 92.36 141.278 92.36C138.686 92.36 136.742 91.556 135.446 89.948C134.174 88.316 133.538 86.144 133.538 83.432V82.712C133.538 80.024 134.174 77.876 135.446 76.268C136.718 74.636 138.554 73.82 140.954 73.82C142.49 73.82 143.762 74.12 144.77 74.72C145.802 75.32 146.534 76.136 146.966 77.168C147.398 78.176 147.518 79.292 147.326 80.516L144.482 80.948C144.746 79.028 144.566 77.552 143.942 76.52C143.342 75.488 142.346 74.972 140.954 74.972ZM170.636 88.328C170.276 89.72 169.712 90.74 168.944 91.388C168.176 92.036 167.192 92.36 165.992 92.36C164.84 92.36 163.904 92.108 163.184 91.604C162.464 91.076 161.936 90.392 161.6 89.552C161.264 88.712 161.096 87.836 161.096 86.924V77.096C161.096 76.256 161.06 75.764 160.988 75.62C160.94 75.476 160.712 75.38 160.304 75.332L158.324 75.152V74.18H161.096V69.464L164.048 68.852V74.18H169.916V75.332H164.048V87.212C164.048 88.724 164.252 89.768 164.66 90.344C165.092 90.92 165.656 91.208 166.352 91.208C167.048 91.208 167.576 90.944 167.936 90.416C168.32 89.888 168.596 89.024 168.764 87.824L170.636 88.328ZM189.238 82.712V83.432C189.238 86.144 188.554 88.316 187.186 89.948C185.842 91.556 183.922 92.36 181.426 92.36C178.954 92.36 177.034 91.556 175.666 89.948C174.322 88.316 173.65 86.144 173.65 83.432V82.712C173.65 80.024 174.322 77.876 175.666 76.268C177.01 74.636 178.93 73.82 181.426 73.82C183.922 73.82 185.842 74.636 187.186 76.268C188.554 77.876 189.238 80.024 189.238 82.712ZM185.998 81.992C185.998 79.496 185.602 77.708 184.81 76.628C184.042 75.524 182.914 74.972 181.426 74.972C179.962 74.972 178.834 75.524 178.042 76.628C177.274 77.708 176.89 79.496 176.89 81.992V84.152C176.89 86.672 177.274 88.484 178.042 89.588C178.834 90.668 179.962 91.208 181.426 91.208C182.914 91.208 184.042 90.668 184.81 89.588C185.602 88.484 185.998 86.672 185.998 84.152V81.992ZM208.053 87.896C207.621 89.528 206.805 90.68 205.605 91.352C204.429 92.024 203.121 92.36 201.681 92.36C199.017 92.36 197.025 91.556 195.705 89.948C194.385 88.316 193.725 86.144 193.725 83.432V82.712C193.725 80.024 194.361 77.876 195.633 76.268C196.905 74.636 198.753 73.82 201.177 73.82C202.473 73.82 203.649 74.084 204.705 74.612C205.785 75.14 206.637 75.92 207.261 76.952C207.909 77.984 208.233 79.268 208.233 80.804C208.233 81.524 208.161 82.28 208.017 83.072H196.965V84.152C196.965 86.672 197.349 88.484 198.117 89.588C198.909 90.668 200.181 91.208 201.933 91.208C203.037 91.208 203.949 90.92 204.669 90.344C205.413 89.768 205.905 88.772 206.145 87.356L208.053 87.896ZM201.177 74.972C199.761 74.972 198.705 75.512 198.009 76.592C197.313 77.672 196.965 79.448 196.965 81.92H205.065V81.812C205.113 81.5 205.149 81.2 205.173 80.912C205.197 80.6 205.209 80.324 205.209 80.084C205.209 78.284 204.837 76.988 204.093 76.196C203.349 75.38 202.377 74.972 201.177 74.972Z" fill="black"/>
</svg>
